<?xml version="1.0" standalone="no"?><!DOCTYPE svg PUBLIC "-//W3C//DTD SVG 1.1//EN" "http://www.w3.org/Graphics/SVG/1.1/DTD/svg11.dtd"><svg t="1760274171311" class="icon" viewBox="0 0 1024 1024" version="1.1" xmlns="http://www.w3.org/2000/svg" p-id="4705" xmlns:xlink="http://www.w3.org/1999/xlink" width="200" height="200"><path d="M719.8 81.2l3.2 50.6v1.8c0 0.6-0.2 1.2-0.4 1.6-0.2 0.6-0.4 1-0.8 1.6s-0.6 1-1 1.4c-0.4 0.4-0.8 0.8-1.4 1.2-0.4 0.4-1 0.6-1.6 0.8-0.6 0.2-1 0.4-1.6 0.6-0.6 0.2-1.2 0.2-1.8 0.2H269.4c-0.6 0-1.2 0-1.8-0.2-0.6-0.2-1.2-0.2-1.6-0.6s-1-0.6-1.6-0.8c-0.4-0.4-1-0.8-1.4-1.2-0.4-0.4-0.8-0.8-1-1.4-0.4-0.4-0.6-1-0.8-1.6-0.2-0.6-0.4-1-0.4-1.6 0-0.6-0.2-1.2 0-1.8l3.2-50.6c0-1 0.4-2.2 0.8-3 0.4-1 1-1.8 1.8-2.6s1.6-1.2 2.6-1.6c1-0.4 2-0.6 3.2-0.6h438.8c1 0 2.2 0.2 3.2 0.6 1 0.4 1.8 1 2.6 1.6 0.8 0.8 1.4 1.6 1.8 2.6 0.6 0.8 1 1.8 1 3z m73.8 100.2c-0.4-4.4-0.6-9.2-1-14l-6-98.4c-0.2-2.2-0.4-4.2-0.6-6.4s-0.8-4.2-1.2-6.2l-1.8-6c-0.8-2-1.6-4-2.4-5.8-1-2-1.8-3.8-3-5.6s-2.2-3.6-3.4-5.4c-1.2-1.8-2.6-3.4-4-5s-2.8-3.2-4.4-4.6l-4.8-4.2c-1.6-1.4-3.4-2.6-5.2-3.6-1.8-1.2-3.6-2.2-5.6-3.2-1.8-1-3.8-1.8-5.8-2.6s-4-1.4-6-2c-2-0.6-4-1-6.2-1.4S728 6.4 726 6c-2.2-0.2-4.2-0.4-6.4-0.4H264.6c-2.2 0-4.2 0.2-6.4 0.4s-4.2 0.6-6.2 1-4.2 0.8-6.2 1.4c-2 0.6-4 1.2-6 2s-4 1.6-5.8 2.6c-1.8 1-3.8 2-5.6 3.2-1.8 1.2-3.6 2.4-5.2 3.6-1.6 1.4-3.2 2.6-4.8 4.2-1.6 1.4-3 3-4.4 4.6-1.4 1.6-2.8 3.2-4 5-1.2 1.8-2.4 3.4-3.4 5.4-1 1.8-2 3.6-3 5.6-1 2-1.8 3.8-2.4 5.8s-1.4 4-1.8 6-1 4.2-1.2 6.2-0.6 4.2-0.6 6.4l-6.2 98.4c-0.2 4.8-0.6 9.6-1 14-2.8 40.6-4.8 70 7.8 138.6 3.6 19.2 11 47.8 20.6 84 26.6 101.2 71.2 270.8 71.2 412.6v151.2c0 1.6 0 3.4 0.2 5s0.4 3.2 0.8 5l1.2 4.8c0.4 1.6 1 3.2 1.6 4.6 0.6 1.6 1.4 3 2.2 4.4 0.8 1.4 1.6 2.8 2.6 4.2 1 1.4 2 2.8 3 4 1 1.2 2.2 2.6 3.4 3.6 1.2 1.2 2.4 2.2 3.6 3.4 1.2 1 2.6 2 4 3s2.8 1.8 4.2 2.6c1.4 0.8 3 1.4 4.4 2.2 1.6 0.6 3 1.2 4.6 1.6l4.8 1.2c1.6 0.4 3.2 0.6 5 0.8 1.6 0.2 3.4 0.2 5 0.2h303.2c1.6 0 3.4 0 5-0.2s3.2-0.4 5-0.8l4.8-1.2c1.6-0.4 3.2-1 4.6-1.6 1.6-0.6 3-1.4 4.4-2.2 1.4-0.8 2.8-1.6 4.2-2.6 1.4-1 2.8-2 4-3s2.6-2.2 3.6-3.4c1.2-1.2 2.2-2.4 3.4-3.6 1-1.2 2-2.6 3-4s1.8-2.8 2.6-4.2c0.8-1.4 1.4-3 2.2-4.4 0.6-1.6 1.2-3 1.6-4.6l1.2-4.8c0.4-1.6 0.6-3.2 0.8-5 0.2-1.6 0.2-3.4 0.2-5v-151c0-162.6 45-323.4 71.8-419.4 9.2-33 16.6-59 19.8-77.2 12.4-68.8 10.4-98.2 7.6-138.8z" p-id="4706" fill="#A65526"></path></svg>